<?xml version="1.0" encoding="UTF-8" standalone="no"?>
<svg
   xmlns:dc="http://purl.org/dc/elements/1.1/"
   xmlns:cc="http://creativecommons.org/ns#"
   xmlns:rdf="http://www.w3.org/1999/02/22-rdf-syntax-ns#"
   xmlns:svg="http://www.w3.org/2000/svg"
   xmlns="http://www.w3.org/2000/svg"
   xmlns:sodipodi="http://sodipodi.sourceforge.net/DTD/sodipodi-0.dtd"
   xmlns:inkscape="http://www.inkscape.org/namespaces/inkscape"
   viewBox="0 0 1054.08 811.20001"
   height="811.20001"
   width="1054.08"
   id="svg869"
   version="1.1"
   sodipodi:docname="fish1_colored.svg"
   inkscape:version="0.92.2 2405546, 2018-03-11">
  <sodipodi:namedview
     pagecolor="#ffffff"
     bordercolor="#666666"
     borderopacity="1"
     objecttolerance="10"
     gridtolerance="10"
     guidetolerance="10"
     inkscape:pageopacity="0"
     inkscape:pageshadow="2"
     inkscape:window-width="2560"
     inkscape:window-height="1027"
     id="namedview10"
     showgrid="false"
     inkscape:zoom="0.97619652"
     inkscape:cx="532.1619"
     inkscape:cy="405.60001"
     inkscape:window-x="0"
     inkscape:window-y="22"
     inkscape:window-maximized="1"
     inkscape:current-layer="svg869" />
  <metadata
     id="metadata875">
    <rdf:RDF>
      <cc:Work
         rdf:about="">
        <dc:format>image/svg+xml</dc:format>
        <dc:type
           rdf:resource="http://purl.org/dc/dcmitype/StillImage" />
        <dc:title />
      </cc:Work>
    </rdf:RDF>
  </metadata>
  <defs
     id="defs873" />
  <g
     id="g882"
     transform="translate(23.560829,21.512061)">
    <path
       style="fill:#fdf8da;stroke-width:0.95999998"
       d="m 537.57336,670.11663 c -73.21924,-8.12223 -91.66807,-66.48358 -33.11485,-104.7561 2.90116,-1.89631 7.81496,-5.13631 10.91956,-7.2 3.10458,-2.06368 8.26623,-5.30512 11.47033,-7.2032 7.22928,-4.28252 7.54458,-5.14746 2.36372,-6.48426 -4.12044,-1.06319 -5.36067,-1.75063 -13.68386,-7.5847 -2.44814,-1.716 -4.71948,-3.12 -5.04743,-3.12 -0.32796,0 -1.3216,-0.65639 -2.20808,-1.45865 -0.88648,-0.80226 -6.7525,-3.57278 -13.03559,-6.1567 -6.28309,-2.58393 -14.38007,-6.03154 -17.99329,-7.66135 -9.28205,-4.18686 -11.54518,-3.97294 -16.89252,1.5967 -5.33896,5.56091 -23.22532,21.14121 -31.72968,27.63879 -5.72075,4.37084 -10.26544,7.55898 -20.64831,14.48498 -2.112,1.40884 -7.00374,4.70235 -10.87052,7.31893 -11.44717,7.74607 -37.35181,19.14608 -54.40948,23.94431 -21.7558,6.11979 -36.00187,6.04161 -59.52,-0.32657 -48.83672,-13.22391 -49.13106,-86.54272 -0.51746,-128.89497 11.79411,-10.27505 10.95464,-13.02546 -3.98004,-13.04011 -3.00163,-0.003 -6.53808,-0.41619 -7.85878,-0.91832 -3.95845,-1.505 -33.45111,-2.41722 -37.09391,-1.14734 -1.73201,0.60378 -8.9203,1.53584 -15.97399,2.07124 -7.0537,0.5354 -15.52286,1.60959 -18.82036,2.38707 -3.2975,0.77749 -7.93962,1.42 -10.31581,1.4278 -5.22141,0.0172 -13.69534,1.74422 -25.91965,5.28269 -29.1011,8.42364 -35.6773,10.52538 -43.94882,14.04591 C 69.194543,495.45232 26.076655,463.28679 14.353913,396.48837 -6.8242362,275.81123 35.15779,227.12413 137.61448,253.54148 c 13.02191,3.35756 36.55987,10.97635 41.46742,13.42222 7.21931,3.59802 36.23129,11.55284 47.45146,13.01076 2.64,0.34303 5.96655,1.21099 7.39233,1.92881 2.69226,1.35541 38.15605,1.93588 42.76767,0.70002 3.24898,-0.87069 2.79009,-1.78178 -5.17988,-10.28445 -14.02418,-14.96154 -24.94653,-30.85925 -28.13796,-40.9554 -15.96774,-50.51441 29.08526,-90.6722 87.79784,-78.25817 36.84903,7.79125 100.1343,41.32371 123.33134,65.34857 6.50774,6.73999 9.63101,7.73192 15.2295,4.83683 1.44403,-0.74674 4.33858,-1.65927 6.43234,-2.02786 2.09375,-0.36858 5.69723,-1.70162 8.00773,-2.9623 2.31051,-1.26068 4.73625,-2.29214 5.39054,-2.29214 0.6543,0 2.21988,-0.78092 3.47909,-1.73536 1.2592,-0.95444 7.25746,-3.81437 13.32946,-6.35539 6.072,-2.54103 13.36021,-5.64812 16.19601,-6.90466 2.83581,-1.25652 5.73148,-2.28459 6.43483,-2.28459 6.41867,0 7.77089,-4.81 2.71335,-9.65168 -10.93184,-10.46532 -26.11627,-33.6709 -28.70587,-43.86972 -7.78778,-30.67127 2.17675,-47.806212 35.31912,-60.734536 48.51968,-18.926768 95.34456,-11.350921 139.88256,22.631746 10.78833,8.23153 35.81515,35.25496 41.29011,44.58419 1.70424,2.904 4.76349,7.27002 6.79833,9.70225 4.0085,4.79136 2.70756,4.31828 23.68082,8.61159 8.89109,1.82003 37.72638,12.2967 40.51307,14.71952 2.17213,1.8885 14.1141,7.76622 20.19767,9.94109 12.69198,4.53739 19.57388,7.47159 24.5392,10.46266 2.92433,1.76159 5.99874,3.20289 6.83202,3.20289 4.06734,0 44.99909,26.81872 55.55589,36.40055 2.66591,2.4197 8.92991,7.85188 13.92,12.07153 57.58352,48.69288 88.77673,96.69264 88.2823,135.84792 -0.75398,59.71566 -52.60704,120.45085 -131.195,153.6679 -5.19993,2.19787 -12.89537,5.48939 -17.10098,7.31449 -4.20561,1.8251 -9.07891,3.50175 -10.82956,3.72589 -1.75064,0.22414 -9.02509,2.38932 -16.16544,4.81152 -7.14036,2.42219 -20.34241,6.49579 -29.33789,9.05244 -8.99549,2.55665 -17.14607,5.36398 -18.11241,6.2385 -0.98501,0.89143 -4.63731,1.96764 -8.31256,2.44944 -3.60556,0.47267 -11.30757,1.50806 -17.11557,2.30086 -5.808,0.79282 -14.664,1.4694 -19.68,1.50352 -12.69735,0.0864 -16.30379,2.70875 -35.46703,25.78937 -22.69898,27.33916 -52.99394,45.67351 -94.61297,57.2593 -13.13296,3.65592 -46.10403,5.37574 -64.32,3.35503 z M 870.73699,325.972 c 3.95186,-3.95185 1.14406,-11.08363 -4.36363,-11.08363 -2.59008,0 -6.72,4.12992 -6.72,6.72 0,5.50769 7.13178,8.31549 11.08363,4.36363 z"
       id="path894"
       inkscape:connector-curvature="0" />
    <path
       style="fill:#fd8763;stroke-width:0.95999998"
       d="m 545.33256,669.02387 c -7.87644,-0.42888 -15.60891,-1.22882 -17.18326,-1.77765 -1.57434,-0.54881 -3.93471,-0.99785 -5.24526,-0.99785 -58.78227,0 -67.26089,-71.68377 -12.21068,-103.23709 2.64,-1.51319 6.96,-4.34425 9.6,-6.29127 2.64,-1.947 7.068,-4.67491 9.84,-6.062 2.772,-1.38709 5.04,-3.14767 5.04,-3.91241 0,-0.76473 1.23525,-2.80946 2.74501,-4.54382 2.71034,-3.11359 8.43033,-12.55634 13.83144,-22.83341 3.41804,-6.50376 3.19322,-9.31956 -1.64303,-20.57955 -7.79601,-18.15099 -3.94614,-62.07755 6.59921,-75.29637 1.10747,-1.38825 4.16456,-5.70592 6.79352,-9.59483 9.92325,-14.67907 26.71979,-22.82707 49.15698,-23.84603 16.90427,-0.7677 17.7836,-4.3278 9.79173,-39.64322 -1.41836,-6.26766 -18.00519,-38.86785 -22.23486,-43.70099 -1.98,-2.2625 -3.6,-4.71144 -3.6,-5.44209 0,-0.73065 -2.09845,-4.55236 -4.66323,-8.49269 -2.56477,-3.94032 -6.26422,-9.97223 -8.22099,-13.40423 -1.95677,-3.432 -5.47003,-9.48 -7.80723,-13.44 -2.33719,-3.96 -4.25375,-7.77118 -4.259,-8.4693 -0.005,-0.6981 -2.44398,-5.4501 -5.41941,-10.56 -2.97542,-5.10988 -6.65679,-11.8827 -8.18082,-15.0507 -1.52403,-3.168 -3.42711,-6.84 -4.22908,-8.16 -0.80196,-1.32 -2.6286,-4.47511 -4.05918,-7.01136 -1.43058,-2.53625 -4.86906,-8.1428 -7.64106,-12.45901 -2.772,-4.31621 -5.04,-8.64516 -5.04,-9.61991 0,-0.97475 -2.29307,-4.22419 -5.09572,-7.22099 -27.29575,-29.18668 -37.16216,-58.71061 -25.91069,-77.5343 18.85841,-31.550112 87.73005,-43.691897 134.89883,-23.782113 26.17806,11.049671 67.34338,46.685433 78.02894,67.547683 6.0662,11.84349 9.48042,13.7077 34.16148,18.65264 4.00556,0.80253 10.26956,2.69231 13.92,4.1995 3.65044,1.5072 9.80237,3.94525 13.67096,5.4179 8.31649,3.16581 9.08298,4.42073 5.19981,8.51323 -6.22896,6.56475 -25.44045,48.24566 -33.26754,72.17673 -12.13121,37.09068 -14.12803,43.74754 -16.55806,55.2 -4.16187,19.61448 -4.3934,21.38482 -4.77071,36.48 -1.17182,46.88112 1.01717,74.52297 8.19501,103.48378 1.53168,6.17992 3.70668,15.34022 4.83336,20.35622 2.90828,12.94779 4.40252,17.91858 12.69743,42.24 12.99107,38.09095 17.01475,49.38232 18.53117,52.00278 1.83139,3.16472 0.0398,5.59711 -4.12284,5.59738 -1.41428,10e-5 -5.81143,0.61845 -9.77143,1.37414 -3.96,0.75567 -11.088,1.68078 -15.84,2.05578 -4.752,0.375 -9.288,0.80359 -10.08,0.95242 -0.792,0.14883 -4.80709,0.30365 -8.92243,0.34405 -8.11701,0.0797 -11.79178,3.07563 -30.38531,24.77238 -25.79887,30.10468 -54.74128,47.57002 -96.53226,58.2526 -8.17103,2.08867 -33.55978,4.86441 -39.02062,4.2661 -0.71465,-0.0783 -7.74374,-0.49325 -15.62018,-0.92213 z m -245.3592,-73.45122 c -3.432,-0.77168 -8.4,-1.77799 -11.04,-2.23624 -51.99277,-9.02476 -55.23816,-84.6181 -5.49284,-127.9423 8.89458,-7.74647 9.65195,-8.68205 10.10268,-12.48 0.26801,-2.25815 1.35489,-7.99374 2.4153,-12.74574 9.48175,-42.49052 6.85039,-101.14382 -6.33106,-141.12 -4.03615,-12.24064 -6.34188,-15.98317 -16.79575,-27.26179 -23.48421,-25.337 -30.61778,-39.38487 -30.76189,-60.57821 -0.33185,-48.80387 47.62235,-71.12712 109.46255,-50.95609 32.58869,10.62976 83.55068,40.33378 102.97328,60.01962 3.41674,3.46305 6.92365,6.29647 7.79311,6.29647 1.14878,0 2.55485,2.82069 5.1444,10.32 1.95995,5.676 4.59173,12.912 5.84841,16.08 1.25668,3.168 2.57774,7.056 2.93571,8.64 0.35796,1.584 1.01086,3.3413 1.45088,3.90511 2.79854,3.58588 12.37522,40.2039 12.37522,47.31868 0,1.63755 0.59277,4.60609 1.31727,6.59678 2.72208,7.47933 3.44716,13.80586 3.99064,34.81943 0.65545,25.34326 -1.20692,52.20952 -5.12415,73.92 -3.80041,21.06305 -13.21465,59.14577 -16.49351,66.72 -0.45714,1.056 -1.97947,5.48861 -3.38296,9.85024 -1.79028,5.56371 -3.17182,8.24443 -4.62954,8.98311 -1.14276,0.57908 -4.02534,3.05847 -6.40572,5.50975 -6.70012,6.89972 -24.55005,22.2016 -33.59203,28.79685 -15.52087,11.32096 -17.24244,12.51692 -21.81134,15.15216 -2.52377,1.45563 -6.43225,4.03177 -8.68553,5.72473 -22.73882,17.0844 -74.02838,31.44212 -95.26313,26.66744 z m 539.5146,-40.92428 c -2.77891,-3.20304 -22.13273,-38.30654 -26.54375,-48.14444 -1.91748,-4.27656 -5.76656,-12.345 -8.55352,-17.92987 -8.53011,-17.0938 -17.45322,-41.11109 -21.51227,-57.90203 -1.05974,-4.38376 -2.60923,-9.87244 -3.44333,-12.19707 -4.43892,-12.37116 -3.58958,-58.64923 1.44302,-78.62659 0.99759,-3.96 2.55212,-10.656 3.45452,-14.88 3.03109,-14.18799 7.15331,-27.78885 10.52944,-34.7408 1.84321,-3.79545 3.35129,-7.34802 3.35129,-7.89463 0,-2.38712 6.58091,-14.50106 25.63473,-47.1876 5.66267,-9.71424 17.32054,-24.89697 19.11681,-24.89697 3.37709,0 44.85233,27.36003 53.69557,35.42142 2.66591,2.43022 8.92991,7.87101 13.92,12.09066 81.99766,69.3376 105.09953,128.06589 74.20793,188.64792 -19.55059,38.34116 -73.39598,82.8407 -122.36212,101.12398 -3.49089,1.30346 -9.39531,3.70779 -13.12091,5.34297 -7.59796,3.33477 -8.34538,3.46975 -9.81741,1.77305 z m 32.96693,-188.21384 c 36.34683,-17.48819 29.20573,-69.32702 -10.56324,-76.68092 -31.20539,-5.77035 -55.58917,28.31304 -41.44512,57.93155 9.58306,20.06756 32.27012,28.24639 52.00836,18.74937 z m -19.52153,-17.28716 c -18.73539,-5.93839 -18.30772,-36.11316 0.59138,-41.72558 9.07213,-2.69412 17.11566,-0.79952 23.43519,5.52 16.97553,16.97553 -0.69367,43.6012 -24.02657,36.20558 z m 16.35142,-20.35526 c 6.61536,-3.42093 6.59039,-10.95947 -0.0477,-14.39214 -8.99682,-4.65244 -14.89068,9.50622 -5.97168,14.34562 3.26177,1.76982 2.69533,1.76544 6.01935,0.0466 z M 83.013361,478.99375 c -34.994045,-4.60127 -60.026386,-36.00091 -67.688049,-84.90538 -0.827197,-5.28 -1.910354,-12.192 -2.407017,-15.36 C -5.1036709,263.77405 54.693401,220.70378 170.37336,265.3176 c 16.56097,6.387 23.29746,8.54507 37.70274,12.07824 8.56749,2.10133 17.73726,4.16855 20.37726,4.59381 4.8,0.77319 4.8,0.77319 6.5346,6.51596 0.95403,3.15851 3.90886,11.35876 6.56628,18.22276 15.28256,39.47405 16.32245,82.75474 2.77604,115.53946 -1.6043,3.88271 -2.91692,7.57756 -2.91692,8.21079 0,1.66032 -7.31777,16.55257 -8.48945,17.27671 -0.54236,0.33519 -6.63452,1.0393 -13.53813,1.56467 -6.90361,0.52538 -15.24761,1.5908 -18.54222,2.36761 -3.29461,0.7768 -7.90819,1.41877 -10.25241,1.42657 -5.92948,0.0198 -14.3938,1.73401 -24.4637,4.95461 -4.71125,1.50677 -9.2166,2.73958 -10.01189,2.73958 -1.98073,0 -12.6657,3.33201 -27.0222,8.42665 -6.6,2.34211 -15.456,5.46537 -19.68,6.94058 -8.80399,3.07472 -17.438604,3.99646 -26.399999,2.81815 z"
       id="path892"
       inkscape:connector-curvature="0" />
    <path
       style="fill:#fd6d2e;stroke-width:0.95999998"
       d="m 547.8425,669.09431 c -78.79602,-4.51154 -103.42684,-63.47584 -42.70826,-102.24035 3.27848,-2.09307 7.59848,-4.85312 9.6,-6.13345 2.00151,-1.28031 7.52712,-4.67115 12.27912,-7.53519 10.24025,-6.17181 10.96819,-6.96697 19.83043,-21.66146 10.5499,-17.49283 10.54524,-17.44819 3.48101,-33.28081 -4.76852,-10.6874 -5.16156,-36.67216 -0.84239,-55.69143 3.78791,-16.67988 17.76711,-36.55717 30.10867,-42.81208 23.95852,-12.1426 41.90313,-12.7643 59.45133,-2.05974 5.45331,3.32656 8.08304,2.48486 13.37987,-4.28254 1.76882,-2.25988 6.05997,-7.42137 9.5359,-11.46996 19.75074,-23.00474 31.07934,-66.79335 23.11394,-89.34269 -7.23187,-20.47278 -29.06405,-37.84555 -55.81876,-44.4173 -5.544,-1.36177 -12.24,-3.21463 -14.88,-4.11745 -3.97172,-1.35824 -8.56801,-1.64349 -26.6362,-1.65306 -24.77918,-0.0132 -23.07056,0.74726 -29.09572,-12.94843 -1.50985,-3.432 -4.05982,-8.24341 -5.66663,-10.69202 -1.6068,-2.44861 -4.1079,-6.55261 -5.55802,-9.12 -5.7297,-10.14429 -10.55752,-17.10908 -15.90419,-22.94402 -41.47107,-45.25837 -39.24748,-82.34551 6.01197,-100.273226 34.90203,-13.825041 76.3187,-13.096305 107.79327,1.896646 24.29287,11.571936 60.55679,43.41681 71.95731,63.18873 1.42831,2.47713 4.02373,6.40201 5.76757,8.72193 1.74385,2.31993 3.17064,4.76821 3.17064,5.4406 0,1.66762 6.21272,3.78215 18.24,6.2081 10.72082,2.16244 18.00244,4.39256 32.57738,9.9774 10.86216,4.16217 10.50234,3.85827 7.87697,6.65284 -6.39532,6.80753 -26.18547,49.83456 -34.06502,74.06302 -13.21502,40.63417 -15.05845,47.11244 -17.89286,62.88 -0.61694,3.432 -1.50124,8.184 -1.96512,10.56 -4.14242,21.2179 0.5914,105.54113 6.82546,121.58108 0.58548,1.5064 2.11467,7.49092 3.39822,13.29892 3.64467,16.49203 4.93834,21.8532 6.02299,24.96 0.553,1.584 1.82988,5.688 2.8375,9.12 1.00763,3.432 4.64364,14.232 8.08002,24 3.43639,9.768 7.43001,21.216 8.87471,25.44 3.66316,10.71028 6.47887,18.04218 7.43282,19.35453 1.84769,2.54186 -26.97984,7.04547 -45.09789,7.04547 -7.50235,0 -9.16983,0.28601 -10.58518,1.81563 -0.924,0.99859 -6.864,7.57354 -13.2,14.61098 -36.12935,40.12915 -61.20361,57.06949 -97.92,66.15546 -4.224,1.04528 -9.93945,2.5213 -12.70098,3.28002 -2.76154,0.75873 -9.67354,1.59195 -15.36,1.85159 -5.68647,0.25966 -12.06702,0.67152 -14.17902,0.91527 -2.112,0.24373 -10.01889,0.0894 -17.57086,-0.34301 z m -243.06914,-72.9312 c -2.904,-0.39189 -7.93436,-1.41503 -11.17857,-2.27364 -3.24421,-0.8586 -6.63656,-1.5611 -7.53854,-1.5611 -47.7286,0 -49.82722,-81.35923 -3.25264,-126.09777 12.14084,-11.66223 12.14084,-11.66223 14.62235,-25.10223 8.45697,-45.80349 6.24992,-105.37984 -5.17455,-139.68 -4.24706,-12.75111 -5.43779,-15.31065 -8.75969,-18.82954 -34.29316,-36.32655 -41.18585,-48.28797 -41.3413,-71.74282 -0.28535,-43.05415 43.4974,-68.12583 95.26294,-54.55121 38.75058,10.16169 101.062,44.90006 118.29231,65.94754 2.78723,3.40469 5.59096,6.19613 6.2305,6.20319 0.63954,0.007 1.81466,2.06484 2.61136,4.57284 2.53963,7.99467 5.31199,15.89197 7.92959,22.58807 2.93009,7.49545 3.25988,6.96268 -6.90376,11.15281 -4.224,1.74142 -11.84346,5.06812 -16.93214,7.39266 -5.08867,2.32455 -9.72008,4.22646 -10.29201,4.22646 -9.01663,0 -52.59774,27.43946 -62.76378,39.51723 -2.25064,2.67386 -6.08318,7.18597 -8.51676,10.02691 -25.60964,29.89643 -5.04658,76.04334 40.78872,91.53666 4.39058,1.4841 10.53282,4.1225 13.64942,5.86311 5.74479,3.20841 9.9908,4.61148 34.94655,11.54786 7.656,2.12796 15.216,4.45297 16.8,5.1667 1.584,0.71372 4.57071,1.53485 6.63714,1.82474 6.52936,0.91598 6.56154,-0.95163 -0.43203,25.07679 -5.41204,20.1424 -6.22845,23.01858 -6.81244,24 -0.31419,0.528 -1.76543,4.75427 -3.22498,9.39173 -1.45954,4.63744 -3.3938,8.95744 -4.29835,9.6 -0.90455,0.64254 -2.16201,2.14328 -2.79435,3.33498 -1.41336,2.66354 -25.01389,23.71992 -34.74992,31.00385 -12.1318,9.07629 -20.81727,15.14252 -24.11908,16.84556 -1.74129,0.89813 -5.10999,3.1238 -7.48599,4.94593 -9.00859,6.90856 -41.71219,20.89346 -58.56993,25.04601 -11.95768,2.94551 -24.5655,4.11498 -32.63007,3.02668 z m 533.16703,-47.27474 c -1.39992,-2.772 -3.71651,-6.768 -5.14795,-8.88 -3.88318,-5.72932 -13.91405,-24.60476 -18.87266,-35.51336 -2.40175,-5.28365 -5.36328,-11.33831 -6.58121,-13.45478 -5.861,-10.18517 -19.01507,-45.41846 -23.47273,-62.87186 -0.60683,-2.376 -1.93842,-6.912 -2.95907,-10.08 -4.73105,-14.68464 -4.18648,-56.42815 0.98938,-75.84 0.98547,-3.696 2.52313,-10.176 3.41702,-14.4 3.02629,-14.30047 7.32408,-28.77009 10.59922,-35.685 1.79353,-3.78675 3.26097,-7.18873 3.26097,-7.55995 0,-1.8595 6.09297,-13.91332 13.32195,-26.35505 4.44834,-7.656 10.07468,-17.39618 12.50297,-21.64485 15.78582,-27.61966 16.75563,-27.82457 43.77508,-9.24912 4.224,2.90395 11.136,7.66363 15.36,10.57707 4.224,2.91345 9.8612,7.27262 12.52711,9.68704 2.66591,2.41443 8.92991,7.84544 13.92,12.06893 36.78004,31.12977 73.93251,77.55387 81.82179,102.24093 16.45404,51.48756 -9.94743,107.89957 -70.3978,150.41897 -17.6802,12.43585 -47.79267,29.69539 -56.6502,32.47013 -1.28749,0.40334 -6.76493,2.61828 -12.17209,4.92211 -12.27552,5.23025 -12.16746,5.23628 -15.24178,-0.85121 z m 25.74572,-177.48025 c 13.33856,-2.83238 23.73588,-10.6793 30.30522,-22.87155 4.27038,-7.92553 4.67176,-28.55704 0.69378,-35.66149 -0.71038,-1.26869 -2.04048,-3.75311 -2.95576,-5.52092 -12.36892,-23.88964 -52.4876,-26.45913 -68.19407,-4.36766 -23.0752,32.45577 2.69709,76.37472 40.15083,68.42162 z m -12.19275,-23.4622 c -21.08926,-10.91529 -14.09217,-40.25755 9.6,-40.25755 15.80521,0 24.21837,10.70188 21.17334,26.93331 -2.10351,11.21266 -19.93558,18.9336 -30.77334,13.32424 z m 18.63246,-19.09228 c 6.23753,-3.22556 5.76632,-12.1754 -0.7839,-14.88859 -9.29268,-3.84916 -15.76209,10.03592 -6.91603,14.84366 3.21247,1.74595 4.39716,1.75286 7.69993,0.0449 z M 78.048868,478.06553 C 40.645439,472.23122 18.778397,433.76115 10.978191,360.07 0.31981105,259.37672 60.374742,224.59317 171.33336,267.19297 c 3.432,1.31763 9.264,3.55054 12.96,4.96201 6.66634,2.54582 32.94737,9.43717 40.32,10.57262 7.88843,1.21488 7.70769,1.08609 9.0545,6.45163 0.69983,2.78802 3.01188,9.60514 5.13789,15.14914 12.09552,31.54148 15.29381,49.69113 13.27383,75.32634 -1.23494,15.67234 -3.72118,27.15088 -8.74055,40.35366 -2.00732,5.28 -3.96611,10.68 -4.35287,12 -1.09042,3.72164 -5.90264,12.9475 -7.40284,14.19255 -0.7407,0.61473 -7.258,1.56637 -14.48288,2.11477 -7.22488,0.5484 -15.83412,1.63321 -19.13162,2.41069 -3.2975,0.77749 -7.93962,1.42 -10.31581,1.4278 -4.98447,0.0163 -13.33448,1.73164 -24.95965,5.12723 -4.488,1.31089 -11.832,3.38426 -16.32,4.60748 -4.488,1.22322 -8.446,2.63253 -8.79557,3.13181 -0.34956,0.49927 -5.31756,2.61601 -11.04,4.70387 -5.72243,2.08787 -13.42843,4.89911 -17.12443,6.24723 -7.48767,2.73112 -21.346974,3.6563 -31.364492,2.09373 z"
       id="path890"
       inkscape:connector-curvature="0" />
    <path
       style="fill:#e6551f;stroke-width:0.95999998"
       d="m 547.8425,669.09431 c -78.79602,-4.51154 -103.42684,-63.47584 -42.70826,-102.24035 33.82857,-21.59714 34.16813,-21.76535 37.71912,-18.68559 1.21758,1.056 2.80154,1.92 3.51992,1.92 0.71838,0 2.05627,0.40102 2.97311,0.89117 5.08946,2.72082 60.2196,18.36756 71.26697,20.22661 2.376,0.39983 12.744,2.24451 23.04,4.09929 10.296,1.85479 24.552,3.89794 31.68,4.54034 7.128,0.6424 15.27334,1.4955 18.10076,1.89577 2.82742,0.40027 8.87531,0.34923 13.43974,-0.11343 14.03121,-1.42219 13.9984,-1.02457 -1.3005,15.762 -36.90714,40.49601 -61.30201,56.93871 -97.92,66.00032 -4.224,1.04528 -9.93945,2.5213 -12.70098,3.28002 -2.76154,0.75873 -9.67354,1.59195 -15.36,1.85159 -5.68647,0.25966 -12.06702,0.67152 -14.17902,0.91527 -2.112,0.24373 -10.01889,0.0894 -17.57086,-0.34301 z m -243.06914,-72.9312 c -2.904,-0.39189 -7.93436,-1.41503 -11.17857,-2.27364 -3.24421,-0.8586 -6.63656,-1.5611 -7.53854,-1.5611 -47.47361,0 -49.82513,-81.98901 -3.60304,-125.62486 6.46792,-6.10601 12.0186,-11.91712 12.33486,-12.91354 0.46074,-1.45166 1.17616,-1.69663 3.60015,-1.23277 1.66382,0.31839 5.83314,0.98051 9.26514,1.47138 15.59765,2.2309 31.07629,6.3373 50.88,13.49821 6.072,2.19559 12.768,4.4534 14.88,5.01734 2.112,0.56394 4.272,1.34869 4.8,1.7439 0.85431,0.63944 14.48052,6.09892 29.28,11.73132 6.33902,2.41251 12.95079,5.61838 32.64,15.82625 8.184,4.243 16.52271,8.00123 18.53046,8.35162 8.61551,1.50359 -3.23317,15.2643 -31.08539,36.10171 -12.1318,9.07629 -20.81727,15.14252 -24.11908,16.84556 -1.74129,0.89813 -5.10999,3.1238 -7.48599,4.94593 -9.00859,6.90856 -41.71219,20.89346 -58.56993,25.04601 -11.95768,2.94551 -24.5655,4.11498 -32.63007,3.02668 z m 280.8,-65.70346 c -16.31314,-3.28487 -27.57739,-9.9488 -29.79211,-17.62502 -0.86741,-3.00644 -3.01989,-8.92226 -4.78329,-13.14626 -6.80351,-16.29692 -5.98948,-47.67766 1.7432,-67.2 2.36339,-5.96676 12.05315,-20.6411 17.33198,-26.24783 11.23989,-11.9381 46.09638,-20.05986 59.18022,-13.78932 20.85171,9.99336 60.52693,46.30716 60.4669,55.34394 -0.0633,9.52613 -1.49936,8.69392 -23.25312,-13.47551 -25.95459,-26.45051 -26.18848,-26.54963 -43.05146,-18.2437 -14.62743,7.20479 -26.4695,22.13576 -29.76778,37.53242 -1.52249,7.10714 -2.52152,23.57452 -1.63073,26.88 0.42686,1.584 1.18272,5.38319 1.67968,8.44263 4.67327,28.77039 19.84857,34.86068 62.91651,25.25025 9.43594,-2.10559 13.92,-2.02882 13.92,0.23833 0,10.40622 -58.28827,21.41078 -84.96,16.04007 z M 78.048868,478.06553 C 45.359334,472.9665 21.889482,438.33622 13.978555,383.52837 0.62257606,290.99654 27.837469,245.22442 94.167271,248.66074 c 14.481669,0.75024 14.502769,0.80852 5.209636,14.38763 -3.115027,4.55167 -14.394215,28.83927 -15.944245,34.33292 -0.8546,3.02889 -2.181557,7.66708 -2.948792,10.30708 -12.597182,43.34597 -5.814986,80.99997 22.04098,122.36912 10.47512,15.55669 25.09897,29.28693 34.30513,32.20885 3.65335,1.15953 0.29786,3.59531 -10.25752,7.44604 -5.7415,2.09457 -13.4631,4.9113 -17.1591,6.25942 -7.48767,2.73112 -21.346974,3.6563 -31.364492,2.09373 z M 851.49336,347.94592 c -21.08926,-10.91529 -14.09217,-40.25755 9.6,-40.25755 15.80521,0 24.21837,10.70188 21.17334,26.93331 -2.10351,11.21266 -19.93558,18.9336 -30.77334,13.32424 z m 18.63246,-19.09228 c 6.23753,-3.22556 5.76632,-12.1754 -0.7839,-14.88859 -9.29268,-3.84916 -15.76209,10.03592 -6.91603,14.84366 3.21247,1.74595 4.39716,1.75286 7.69993,0.0449 z M 281.93176,281.18085 c -1.42912,-1.69957 -6.39776,-7.17964 -11.04143,-12.17795 -67.045,-72.16521 -10.21064,-141.48782 87.16303,-106.31542 45.07564,16.28179 119.27294,67.72089 97.68265,67.72089 -0.72071,0 -5.71414,1.88929 -11.09651,4.19842 -9.80984,4.2086 -13.64039,5.68738 -44.82614,17.30504 -30.61272,11.40418 -79.99427,25.65781 -96.96,27.98679 -2.376,0.32617 -5.832,1.14616 -7.68,1.82219 -7.96698,2.91449 -10.421,2.81442 -13.2416,-0.53996 z m 250.50603,-93.37687 c -42.59169,-48.47843 -40.85017,-83.18879 5.08678,-101.384876 34.90203,-13.825041 76.3187,-13.096305 107.79327,1.896646 24.29287,11.571936 60.55679,43.41681 71.95731,63.18873 1.42831,2.47713 4.02373,6.40201 5.76757,8.72193 3.78897,5.04064 4.14776,7.3239 1.01064,6.43132 -13.40603,-3.81431 -69.07899,-1.93307 -95.28,3.21958 -2.64,0.51918 -11.928,2.30321 -20.64,3.9645 -20.57136,3.92276 -56.39281,14.42412 -60.48,17.73022 -1.3479,1.0903 -7.23762,4.28456 -7.87233,4.26951 -0.15821,-0.004 -3.46268,-3.62065 -7.34324,-8.03756 z"
       id="path888"
       inkscape:connector-curvature="0" />
    <path
       style="fill:#5a5a5a;stroke-width:0.95999998"
       d="M 547.8425,669.09431 C 468.98056,664.579 444.12854,603.99033 505.72316,566.40837 c 3.02877,-1.848 7.66094,-4.77587 10.29371,-6.50637 10.36697,-6.81412 21.23848,-12.80311 22.7194,-12.51585 2.99654,0.58126 2.24566,2.49132 -1.94483,4.9471 -47.68767,27.94684 -42.24883,67.66581 11.38793,83.16423 12.70482,3.67107 41.33172,5.75561 53.23399,3.87636 3.96,-0.62524 9.36,-1.46597 12,-1.8683 39.56749,-6.02998 81.06395,-28.64007 94.80679,-51.65717 1.85148,-3.10094 10.13792,-4.99414 9.17169,-2.09545 -1.31842,3.95527 -37.84918,41.3283 -50.16038,51.3169 -12.83001,10.40953 -40.66212,23.6396 -59.5781,28.32062 -4.224,1.04528 -9.93945,2.5213 -12.70098,3.28002 -2.76154,0.75873 -9.67354,1.59195 -15.36,1.85159 -5.68647,0.25966 -12.06702,0.67152 -14.17902,0.91527 -2.112,0.24373 -10.01889,0.0894 -17.57086,-0.34301 z m -243.06914,-72.9312 c -2.904,-0.39189 -7.93436,-1.41503 -11.17857,-2.27364 -3.24421,-0.8586 -6.63656,-1.5611 -7.53854,-1.5611 -26.37773,0 -45.37628,-44.49012 -34.23062,-80.16 6.42678,-20.56788 39.52269,-61.5284 46.97215,-58.13419 2.48509,1.13227 -3.49534,8.66332 -14.7385,18.55996 -20.72742,18.245 -23.55898,49.13014 -6.01757,65.63635 5.89412,5.54627 17.88622,12.64081 23.15939,13.70111 26.52941,5.3344 59.0104,5.55215 74.13226,0.49697 2.112,-0.70603 7.512,-2.20464 12,-3.33025 29.04012,-7.28334 50.05843,-17.64903 66.36743,-32.73071 5.57136,-5.1521 11.11226,-5.6968 8.51122,-0.83671 -1.32884,2.48297 -25.34676,23.82017 -34.63358,30.76803 -12.1318,9.07629 -20.81727,15.14252 -24.11908,16.84556 -1.74129,0.89813 -5.10999,3.1238 -7.48599,4.94593 -9.00859,6.90856 -41.71219,20.89346 -58.56993,25.04601 -11.95768,2.94551 -24.5655,4.11498 -32.63007,3.02668 z m 282.24,-66.64704 c -7.31711,-1.47452 -15.24071,-4.10755 -17.28,-5.74218 -0.792,-0.63485 -2.52,-1.68691 -3.84,-2.3379 -7.94083,-3.91628 -7.65573,-3.52659 -14.15504,-19.34762 -7.50646,-18.27271 -7.06021,-49.24359 1.00284,-69.6 2.36339,-5.96676 12.05315,-20.6411 17.33198,-26.24783 11.24366,-11.94212 46.20789,-20.08501 59.15138,-13.7759 19.35134,9.43252 60.89034,49.70453 59.00723,57.20744 -0.96283,3.83621 -1.11872,3.7137 -20.80583,-16.3501 -26.40335,-26.90857 -26.99476,-27.1561 -44.2713,-18.52965 -13.09061,6.53635 -20.3221,13.82249 -26.61758,26.81877 -5.0955,10.51904 -7.76987,32.55213 -5.14716,42.40531 0.74838,2.81158 1.36582,6.16041 1.37209,7.44185 0.0191,3.91596 7.4017,17.86122 12.24089,23.12243 4.5705,4.96909 4.5705,4.96909 18.4905,4.90516 13.32879,-0.0612 17.05384,-0.52673 36.24715,-4.52982 8.18331,-1.70678 9.99915,-1.42782 8.29474,1.27422 -1.49261,2.36628 -15.29216,7.59997 -27.74189,10.52154 -3.168,0.74343 -7.13371,1.77931 -8.81269,2.30194 -5.04478,1.57034 -37.30455,1.90575 -44.46731,0.46234 z M 78.048868,478.06553 C 45.359334,472.9665 21.889482,438.33622 13.978555,383.52837 0.98638601,293.51706 25.935908,248.29276 88.435131,248.56601 c 19.606949,0.0857 19.420139,-0.16965 9.930425,13.57582 -3.247976,4.70456 -14.651471,29.27321 -16.461729,35.46654 -8.855254,30.29595 -10.380598,45.522 -7.087982,70.75252 4.60558,35.29145 38.322145,87.6506 61.097215,94.87912 3.48374,1.1057 1.39888,2.55659 -9.25946,6.44382 -5.78613,2.11027 -13.54424,4.93985 -17.24024,6.28797 -7.48767,2.73112 -21.346974,3.6563 -31.364492,2.09373 z M 851.49336,347.94592 c -21.08926,-10.91529 -14.09217,-40.25755 9.6,-40.25755 15.80521,0 24.21837,10.70188 21.17334,26.93331 -2.10351,11.21266 -19.93558,18.9336 -30.77334,13.32424 z m 18.63246,-19.09228 c 6.23753,-3.22556 5.76632,-12.1754 -0.7839,-14.88859 -9.29268,-3.84916 -15.76209,10.03592 -6.91603,14.84366 3.21247,1.74595 4.39716,1.75286 7.69993,0.0449 z M 281.75441,281.3277 c -0.55358,-1.03437 -5.15431,-6.31754 -10.22385,-11.74037 -67.80573,-72.53103 -11.36888,-142.25936 86.5228,-106.89985 42.16945,15.23205 117.20305,65.87317 97.44,65.76349 -0.792,-0.005 -2.68071,-1.68569 -4.19715,-3.73621 -10.5865,-14.31512 -74.47094,-35.87575 -106.68285,-36.00484 -74.81767,-0.29984 -109.01125,51.86088 -57.36,87.50001 6.12189,4.22408 6.16671,4.5668 0.77489,5.92448 -5.41205,1.36276 -5.09066,1.40409 -6.27384,-0.80671 z m 250.20706,-94.08812 c -42.0678,-47.62043 -40.13103,-82.72058 5.5631,-100.820476 34.90203,-13.825041 76.3187,-13.096305 107.79327,1.896646 24.5539,11.69628 57.70453,40.77558 71.77552,62.96055 2.112,3.32988 5.09218,7.81664 6.62261,9.97058 3.19898,4.50226 3.11027,4.84824 -0.96046,3.74634 -2.08366,-0.56403 -3.98872,-2.32231 -6.3443,-5.85547 -25.69766,-38.54437 -52.50061,-50.61299 -107.61799,-48.45737 -65.48604,2.56114 -96.3758,36.77461 -67.68116,74.96357 4.18468,5.56931 4.20121,6.09917 0.2422,7.76381 -2.84991,1.1983 -2.93408,1.14302 -9.39279,-6.16818 z"
       id="path886"
       inkscape:connector-curvature="0" />
    <path
       style="fill:#373737;stroke-width:0.95999998"
       d="m 545.90183,667.13355 c -7.56335,-0.41098 -15.07981,-1.21026 -16.70326,-1.7762 -1.62345,-0.56594 -4.11412,-1.02898 -5.53482,-1.02898 -56.61812,0 -65.62514,-66.26943 -13.42239,-98.75563 4.47261,-2.78333 10.724,-6.67405 13.892,-8.64602 10.47768,-6.52203 14.88,-8.85117 14.88,-7.8726 0,0.53169 -0.84415,1.41847 -1.87588,1.97064 -48.85379,26.14576 -43.14416,70.26619 11.0514,85.3983 13.35178,3.72799 41.35181,5.78536 53.22448,3.91078 3.96,-0.62524 9.36,-1.46597 12,-1.8683 39.53342,-6.02479 75.4814,-25.40062 94.949,-51.17717 2.43473,-3.22376 6.331,-4.9264 6.331,-2.76659 0,1.52226 -31.32985,34.05997 -41.63005,43.23502 -13.23583,11.79 -14.20615,12.40429 -38.52995,24.39292 -17.87111,8.80825 -58.59426,17.58949 -73.61989,15.87485 -0.69307,-0.0791 -7.4483,-0.48004 -15.01164,-0.89102 z M 302.85336,594.27764 c -1.848,-0.39046 -6.80165,-1.44389 -11.00811,-2.34094 -53.57942,-11.42623 -57.06095,-83.49545 -6.09072,-126.08075 4.38835,-3.66644 8.59713,-7.82396 9.35283,-9.23892 1.33226,-2.49453 2.97151,-2.93214 3.6262,-0.96806 0.17611,0.52833 -4.24882,5.46933 -9.83317,10.98 -20.6541,20.38154 -26.7877,35.4173 -22.08968,54.15016 3.38575,13.5003 20.27959,29.27514 34.39039,32.11247 26.52941,5.3344 59.0104,5.55215 74.13226,0.49697 2.112,-0.70603 7.512,-2.20464 12,-3.33025 29.11484,-7.30207 48.38676,-16.78227 66.55201,-32.73807 6.62006,-5.81487 9.45239,-5.27666 3.78348,0.71894 -16.48742,17.43756 -57.97914,47.83136 -78.01549,57.14845 -4.488,2.08695 -8.87612,4.18413 -9.75137,4.66038 -17.69447,9.62814 -53.40246,17.31289 -67.04863,14.42962 z m 284.16,-65.79373 c -7.59147,-1.44202 -15.30814,-4.04557 -17.35559,-5.85565 -0.83358,-0.73694 -1.89035,-1.33989 -2.3484,-1.33989 -2.68556,0 -8.19394,-5.38495 -9.67961,-9.46272 -0.89317,-2.4515 -3.09319,-7.91328 -4.88894,-12.13728 -8.27172,-19.45692 -4.71675,-63.11944 6.16508,-75.72 0.96894,-1.122 3.86612,-5.19928 6.43815,-9.06064 12.52072,-18.79718 46.48948,-28.89163 65.9056,-19.58507 15.63004,7.4918 56.64939,45.55413 56.54901,52.4725 -0.0665,4.5866 -2.34345,2.86144 -20.25252,-15.34486 -26.57653,-27.0176 -27.11451,-27.24326 -44.39152,-18.61978 -13.16498,6.57104 -21.24767,14.71323 -27.57758,27.78058 -5.0955,10.51904 -7.76987,32.55213 -5.14716,42.40531 0.74838,2.81158 1.36582,6.09344 1.37209,7.29304 0.0279,5.34176 9.35401,21.71362 15.13693,26.5727 3.09475,2.60035 3.26026,2.6256 16.8,2.563 13.05748,-0.0604 17.88027,-0.66627 35.57245,-4.46913 4.1239,-0.88642 7.74946,-1.36021 8.0568,-1.05285 0.87166,0.87164 -1.69077,3.48364 -3.43233,3.49875 -0.85935,0.008 -5.66646,1.53526 -10.68246,3.39512 -19.81929,7.34876 -47.81597,10.16654 -66.24,6.66687 z M 82.095485,476.97783 c -26.21657,-3.39692 -49.983974,-27.33016 -58.958097,-59.36946 -0.813402,-2.904 -2.342657,-8.304 -3.398344,-12 -6.827362,-23.90286 -9.417271,-68.70098 -5.244784,-90.72 8.518886,-44.95581 30.407981,-64.60978 71.966919,-64.61827 18.922481,-0.004 18.571501,-0.18919 13.813661,7.2943 -5.641239,8.87298 -17.245891,32.9122 -19.330748,40.04397 -8.85491,30.29038 -10.380866,45.52197 -7.088247,70.75252 4.097596,31.3989 30.837535,76.55698 54.033425,91.25101 7.87621,4.98938 8.20912,5.54237 3.84409,6.38527 -1.716,0.33137 -6.792,2.13167 -11.28,4.00066 -16.70944,6.95854 -25.782015,8.60948 -38.357875,6.98 z M 854.45536,347.29642 c -7.08683,-1.87357 -14.002,-11.24132 -14.002,-18.96805 0,-17.41945 22.53356,-26.48948 34.9406,-14.06402 15.29513,15.31783 0.47737,38.69387 -20.9386,33.03207 z m 17.51819,-17.70269 c 9.5927,-6.05793 0.98069,-21.9191 -9.20019,-16.94443 -8.17129,3.99273 -8.30895,13.80918 -0.25005,17.83077 3.47051,1.73188 5.62417,1.52989 9.45024,-0.88634 z M 274.51884,270.58112 c -27.57627,-30.26003 -35.63002,-50.31675 -29.36885,-73.13892 14.90879,-54.34301 87.00253,-56.83458 167.62337,-5.79308 24.97632,15.81265 49.39869,35.87925 43.66741,35.87925 -0.53494,0 -3.02043,-2.052 -5.52333,-4.56 -15.18251,-15.2135 -75.1895,-35.09375 -106.30408,-35.21845 -75.21817,-0.30144 -109.34364,51.01308 -58.79578,88.41129 4.81121,3.55961 5.07673,4.62023 1.33572,5.33537 -1.92062,0.36714 -3.9513,-1.38725 -12.63446,-10.91546 z m 259.10222,-84.16755 c -47.53575,-51.84953 -39.03135,-88.677023 24.18085,-104.712859 56.51215,-14.336152 126.95821,17.262101 158.25516,70.984619 1.98753,3.41166 4.51148,7.17334 5.60877,8.35925 2.24288,2.42401 1.60312,4.10217 -0.80268,2.10552 -0.85613,-0.71052 -3.13457,-3.53104 -5.0632,-6.26783 -23.9338,-33.96275 -36.78427,-41.5342 -78.12908,-46.03333 -81.03546,-8.81827 -131.34243,29.78004 -97.50602,74.81206 3.37444,4.49095 3.54721,5.00719 2.04379,6.10652 -2.26317,1.65487 -2.02679,1.80225 -8.58759,-5.35395 z"
       id="path884"
       inkscape:connector-curvature="0" />
  </g>
</svg>
